<svg xmlns="http://www.w3.org/2000/svg" viewBox="0 0 512 512" role="img" aria-label="Fut5 Organizer">
  <rect width="512" height="512" rx="104" fill="#0d1b10"/>
  <circle cx="256" cy="256" r="194" fill="none" stroke="#39e55a" stroke-width="24"/>
  <path d="M174 138h186v54H222l-8 52c17-9 37-13 59-13 66 0 111 40 111 104 0 70-52 112-131 112-47 0-88-14-120-42l35-45c25 20 52 30 81 30 39 0 65-20 65-52 0-33-24-52-66-52-29 0-55 8-78 23l-27-21 31-160Z" fill="#39e55a"/>
  <path d="M76 256h95m170 0h95M256 62v78m0 232v78" fill="none" stroke="#39e55a" stroke-width="18"/>
  <circle cx="256" cy="256" r="48" fill="none" stroke="#0d1b10" stroke-width="16"/>
  <path d="M256 208v96" stroke="#0d1b10" stroke-width="12"/>
</svg>
